# xmcd
#
# Track frame offsets: 
#        150
#        14468
#        29532
#        43007
#        56733
#        69909
#        83189
#        96859
#        111177
#        125711
#        139988
#        154745
#        166632
#        179550
#        191967
#        205275
#        218214
#        232727
#        247087
#        261162
#        275209
#        289472
#        302620
#
# Disc length: 4215 seconds
#
# Revision: 0
# Processed by: cddbd v1.5.2PL0 Copyright (c) Steve Scherf et al.
# Submitted via: ExactAudioCopy v0.95b3
#
DISCID=63107517
DTITLE=Blind Lemon Jefferson  - Texas Blues - Box - CD1
DYEAR=1900
DGENRE=
TTITLE0=I Want To Be Like Jesus In My Heart
TTITLE1=All I Want Is That Pure Religion
TTITLE2=Got The Blues
TTITLE3=Long Lonesome Blues
TTITLE4=Booster Blues
TTITLE5=Dry Southern Blues
TTITLE6=Black Horse Blues
TTITLE7=Corrina Blues #1
TTITLE8=Corrina Blues #2
TTITLE9=Got The Blues
TTITLE10=Long Lonesome Blues
TTITLE11=Jack O Diamonds #1
TTITLE12=Jack O Diamonds #2
TTITLE13=Chock House Blues
TTITLE14=Beggin Back
TTITLE15=Old Rounders Blues
TTITLE16=Stocking Feet Blues
TTITLE17=That Black Snake Moan
TTITLE18=Wartime Blues
TTITLE19=Broke And Hungry
TTITLE20=Shuckin Sugar Blues
TTITLE21=Booger Rooger Blues
TTITLE22=Rabbit Foot Blues
EXTD=
EXTT0=
EXTT1=
EXTT2=
EXTT3=
EXTT4=
EXTT5=
EXTT6=
EXTT7=
EXTT8=
EXTT9=
EXTT10=
EXTT11=
EXTT12=
EXTT13=
EXTT14=
EXTT15=
EXTT16=
EXTT17=
EXTT18=
EXTT19=
EXTT20=
EXTT21=
EXTT22=
PLAYORDER=
